<?xml version="1.0" encoding="UTF-8" standalone="no"?>
<!-- Created with Inkscape (http://www.inkscape.org/) -->

<svg
   width="166.47171mm"
   height="26.000008mm"
   viewBox="0 0 166.47172 26.000007"
   version="1.1"
   id="svg1"
   inkscape:version="1.4 (e7c3feb100, 2024-10-09)"
   sodipodi:docname="logo.svg"
   inkscape:export-filename="/home/silvan/Downloads/logo.png"
   inkscape:export-xdpi="45.773544"
   inkscape:export-ydpi="45.773544"
   xmlns:inkscape="http://www.inkscape.org/namespaces/inkscape"
   xmlns:sodipodi="http://sodipodi.sourceforge.net/DTD/sodipodi-0.dtd"
   xmlns="http://www.w3.org/2000/svg"
   xmlns:svg="http://www.w3.org/2000/svg">
  <sodipodi:namedview
     id="namedview1"
     pagecolor="#505050"
     bordercolor="#ffffff"
     borderopacity="1"
     inkscape:showpageshadow="0"
     inkscape:pageopacity="0"
     inkscape:pagecheckerboard="1"
     inkscape:deskcolor="#505050"
     inkscape:document-units="mm"
     showgrid="true"
     inkscape:zoom="43.956531"
     inkscape:cx="71.923328"
     inkscape:cy="98.733906"
     inkscape:window-width="1920"
     inkscape:window-height="1029"
     inkscape:window-x="0"
     inkscape:window-y="27"
     inkscape:window-maximized="1"
     inkscape:current-layer="icon">
    <inkscape:grid
       id="grid1"
       units="mm"
       originx="-65"
       originy="-79.999992"
       spacingx="0.99999998"
       spacingy="1"
       empcolor="#0099e5"
       empopacity="0.30196078"
       color="#0099e5"
       opacity="0.14901961"
       empspacing="5"
       enabled="true"
       visible="true" />
    <inkscape:page
       x="0"
       y="0"
       width="166.47173"
       height="26.000008"
       id="page1"
       margin="0"
       bleed="0" />
  </sodipodi:namedview>
  <defs
     id="defs1">
    <inkscape:path-effect
       effect="fillet_chamfer"
       id="path-effect4"
       is_visible="true"
       lpeversion="1"
       nodesatellites_param="F,0,0,1,0,0,0,1 @ F,0,0,1,0,1.5053577,0,1 @ F,0,0,1,0,1.5091945,0,1 @ F,0,0,1,0,0,0,1"
       radius="0"
       unit="px"
       method="auto"
       mode="F"
       chamfer_steps="1"
       flexible="false"
       use_knot_distance="true"
       apply_no_radius="true"
       apply_with_radius="true"
       only_selected="false"
       hide_knots="false" />
    <inkscape:path-effect
       effect="fillet_chamfer"
       id="path-effect3"
       is_visible="true"
       lpeversion="1"
       nodesatellites_param="F,0,0,1,0,1.491631,0,1 @ F,0,0,1,0,0,0,1 @ F,0,0,1,0,0,0,1 @ F,0,0,1,0,1.5089037,0,1"
       radius="0"
       unit="px"
       method="auto"
       mode="F"
       chamfer_steps="1"
       flexible="false"
       use_knot_distance="true"
       apply_no_radius="true"
       apply_with_radius="true"
       only_selected="false"
       hide_knots="false" />
    <rect
       x="94.48819"
       y="2.8835508e-05"
       width="188.97638"
       height="102.04725"
       id="rect9" />
    <rect
       x="94.48819"
       y="2.8835508e-05"
       width="491.84052"
       height="98.2677"
       id="rect8" />
    <rect
       x="96.325432"
       y="0"
       width="501.96918"
       height="98.267731"
       id="rect7" />
    <rect
       x="97.837502"
       y="0"
       width="348.34451"
       height="98.267731"
       id="rect6" />
    <rect
       x="95.141434"
       y="0"
       width="375.65674"
       height="98.267731"
       id="rect5" />
    <rect
       x="94.48819"
       y="2.8835508e-05"
       width="151.18111"
       height="128.50394"
       id="rect4" />
  </defs>
  <g
     inkscape:label="Icon"
     inkscape:groupmode="layer"
     id="icon"
     transform="translate(-65.000001,-79.999992)">
    <path
       style="fill:#215f9a;fill-opacity:1;stroke:none;stroke-width:2.00187;stroke-linecap:round"
       id="rect3"
       width="4.0000067"
       height="26.000004"
       x="81"
       y="79.999992"
       inkscape:label="Rect 3"
       transform="translate(1.0000002e-6)"
       inkscape:path-effect="#path-effect4"
       sodipodi:type="rect"
       d="m 81,79.999992 h 2.494649 a 1.5053577,1.5053577 45 0 1 1.505358,1.505358 l 0,22.98545 A 1.5091945,1.5091945 135 0 1 83.490812,106 H 81 Z" />
    <rect
       style="fill:#4e95d9;fill-opacity:1;stroke:none;stroke-width:2.45179;stroke-linecap:round"
       id="rect2"
       width="6.0000024"
       height="26.000004"
       x="74"
       y="79.999992"
       inkscape:label="Rect 2" />
    <path
       style="fill:#a6caec;fill-opacity:1;stroke:none;stroke-width:2.83109;stroke-linecap:round"
       id="rect1"
       width="8"
       height="26.000004"
       x="65"
       y="79.999992"
       inkscape:label="Rect 1"
       transform="translate(1.0000002e-6)"
       inkscape:path-effect="#path-effect3"
       sodipodi:type="rect"
       d="M 66.491631,79.999992 H 73 V 106 H 66.508904 A 1.5089037,1.5089037 45 0 1 65,104.49109 V 81.491623 a 1.491631,1.491631 135 0 1 1.491631,-1.491631 z" />
  </g>
  <g
     inkscape:groupmode="layer"
     id="text"
     inkscape:label="Text">
    <g
       id="text9"
       style="font-weight:300;font-size:40px;font-family:Comfortaa;-inkscape-font-specification:'Comfortaa Light';white-space:pre;fill:#215f9a;stroke-width:12.8504;stroke-linecap:round"
       inkscape:label="Text"
       transform="matrix(0.82848373,0,0,0.82802545,-56.59594,-4.4426642)"
       aria-label="ReloPlan">
      <path
         style="font-weight:bold;-inkscape-font-specification:'Comfortaa Bold';fill:#4e95d9"
         d="m 100.56828,36.605381 q -0.879999,0 -1.479999,-0.6 -0.6,-0.6 -0.6,-1.48 V 7.4453812 q 0,-0.92 0.6,-1.48 0.6,-0.6 1.479999,-0.6 h 7.2 q 3,0 5.32,1.28 2.32,1.24 3.6,3.4399998 1.32,2.2 1.32,5.12 0,2.72 -1.32,4.84 -1.28,2.12 -3.6,3.32 -2.32,1.2 -5.32,1.2 h -5.12 v 9.96 q 0,0.88 -0.6,1.48 -0.56,0.6 -1.48,0.6 z m 16.6,0 q -0.56,0 -1.04,-0.24 -0.44,-0.24 -0.76,-0.76 l -7.2,-11.6 4.04,-1.16 6.56,10.56 q 0.72,1.16 0.2,2.2 -0.52,1 -1.8,1 z m -14.52,-15.88 h 5.12 q 1.84,0 3.24,-0.68 1.4,-0.72 2.2,-1.96 0.8,-1.28 0.8,-2.88 0,-1.76 -0.8,-3.12 -0.8,-1.36 -2.2,-2.1199998 -1.4,-0.76 -3.24,-0.76 h -5.12 z m 31,16.04 q -3.32,0 -5.92,-1.4 -2.56,-1.44 -4.04,-3.92 -1.44,-2.52 -1.44,-5.76 0,-3.28 1.36,-5.76 1.4,-2.52 3.84,-3.92 2.44,-1.44 5.6,-1.44 3.12,0 5.36,1.4 2.24,1.36 3.4,3.8 1.2,2.4 1.2,5.56 0,0.76 -0.52,1.28 -0.52,0.48 -1.32,0.48 h -16.12 v -3.2 h 16 l -1.64,1.12 q -0.04,-2 -0.8,-3.56 -0.76,-1.6 -2.16,-2.52 -1.4,-0.92 -3.4,-0.92 -2.28,0 -3.92,1 -1.6,1 -2.44,2.76 -0.84,1.72 -0.84,3.92 0,2.2 1,3.92 1,1.72 2.76,2.72 1.76,1 4.04,1 1.24,0 2.52,-0.44 1.32,-0.48 2.12,-1.08 0.6,-0.44 1.28,-0.44 0.72,-0.04 1.24,0.4 0.68,0.6 0.72,1.32 0.04,0.72 -0.64,1.24 -1.36,1.08 -3.4,1.76 -2,0.68 -3.84,0.68 z m 19.76001,-0.16 q -1.76,0 -3.12,-0.96 -1.36,-0.96 -2.12,-2.6 -0.76,-1.68 -0.76,-3.84 V 7.3653812 q 0,-0.88 0.56,-1.44 0.56,-0.56 1.44,-0.56 0.88,0 1.44,0.56 0.56,0.56 0.56,1.44 V 29.205381 q 0,1.48 0.56,2.44 0.56,0.96 1.44,0.96 h 1 q 0.8,0 1.28,0.56 0.52,0.56 0.52,1.44 0,0.88 -0.76,1.44 -0.76,0.56 -1.96,0.56 z m 15.51994,0.16 q -3.24,0 -5.72,-1.4 -2.48,-1.44 -3.92,-3.92 -1.4,-2.52 -1.4,-5.76 0,-3.28 1.4,-5.76 1.44,-2.52 3.92,-3.92 2.48,-1.44 5.72,-1.44 3.2,0 5.68,1.44 2.48,1.4 3.88,3.92 1.44,2.48 1.44,5.76 0,3.24 -1.4,5.76 -1.4,2.48 -3.88,3.92 -2.48,1.4 -5.72,1.4 z m 0,-3.6 q 2.08,0 3.68,-0.96 1.6,-0.96 2.48,-2.64 0.92,-1.68 0.92,-3.88 0,-2.2 -0.92,-3.88 -0.88,-1.72 -2.48,-2.68 -1.6,-0.96 -3.68,-0.96 -2.08,0 -3.68,0.96 -1.6,0.96 -2.52,2.68 -0.92,1.68 -0.92,3.88 0,2.2 0.92,3.88 0.92,1.68 2.52,2.64 1.6,0.96 3.68,0.96 z"
         id="path2" />
      <path
         style="font-weight:bold;-inkscape-font-specification:'Comfortaa Bold'"
         d="m 188.4882,36.605381 q -0.88,0 -1.48,-0.6 -0.6,-0.6 -0.6,-1.48 V 7.4453812 q 0,-0.92 0.6,-1.48 0.6,-0.6 1.48,-0.6 h 8 q 3,0 5.32,1.32 2.32,1.32 3.6,3.6799998 1.32,2.32 1.32,5.36 0,2.92 -1.32,5.2 -1.28,2.28 -3.6,3.56 -2.32,1.28 -5.32,1.28 h -5.92 v 8.76 q 0,0.88 -0.6,1.48 -0.56,0.6 -1.48,0.6 z m 2.08,-14.68 h 5.92 q 1.84,0 3.24,-0.8 1.4,-0.8 2.2,-2.2 0.8,-1.4 0.8,-3.2 0,-1.92 -0.8,-3.36 -0.8,-1.48 -2.2,-2.32 -1.4,-0.8399998 -3.24,-0.8399998 h -5.92 z m 25.55997,14.68 q -1.76,0 -3.12,-0.96 -1.36,-0.96 -2.12,-2.6 -0.76,-1.68 -0.76,-3.84 V 7.3653812 q 0,-0.88 0.56,-1.44 0.56,-0.56 1.44,-0.56 0.88,0 1.44,0.56 0.56,0.56 0.56,1.44 V 29.205381 q 0,1.48 0.56,2.44 0.56,0.96 1.44,0.96 h 1 q 0.8,0 1.28,0.56 0.52,0.56 0.52,1.44 0,0.88 -0.76,1.44 -0.76,0.56 -1.96,0.56 z m 14.71994,0.16 q -2.92,0 -5.24,-1.44 -2.32,-1.48 -3.68,-3.96 -1.32,-2.52 -1.32,-5.68 0,-3.16 1.44,-5.68 1.48,-2.52 3.96,-3.96 2.52,-1.48 5.64,-1.48 3.12,0 5.6,1.48 2.48,1.44 3.92,3.96 1.48,2.52 1.48,5.68 h -1.56 q 0,3.16 -1.36,5.68 -1.32,2.48 -3.64,3.96 -2.32,1.44 -5.24,1.44 z m 0.8,-3.6 q 2.04,0 3.64,-0.96 1.6,-1 2.52,-2.68 0.92,-1.72 0.92,-3.84 0,-2.16 -0.92,-3.84 -0.92,-1.72 -2.52,-2.68 -1.6,-1 -3.64,-1 -2,0 -3.64,1 -1.6,0.96 -2.56,2.68 -0.92,1.68 -0.92,3.84 0,2.12 0.92,3.84 0.96,1.68 2.56,2.68 1.64,0.96 3.64,0.96 z m 8.96,3.48 q -0.88,0 -1.48,-0.56 -0.56,-0.6 -0.56,-1.48 v -6.12 l 0.76,-4.24 3.32,1.44 v 8.92 q 0,0.88 -0.6,1.48 -0.56,0.56 -1.44,0.56 z m 26.59997,0 q -0.88,0 -1.48,-0.56 -0.56,-0.6 -0.56,-1.48 v -9.84 q 0,-2.28 -0.84,-3.72 -0.84,-1.44 -2.28,-2.12 -1.4,-0.72 -3.24,-0.72 -1.68,0 -3.04,0.68 -1.36,0.68 -2.16,1.84 -0.8,1.12 -0.8,2.6 h -2.52 q 0,-2.52 1.2,-4.48 1.24,-2 3.36,-3.16 2.12,-1.16 4.76,-1.16 2.76,0 4.92,1.2 2.2,1.16 3.44,3.44 1.28,2.28 1.28,5.6 v 9.84 q 0,0.88 -0.6,1.48 -0.56,0.56 -1.44,0.56 z m -16.44,0 q -0.88,0 -1.48,-0.56 -0.56,-0.6 -0.56,-1.48 v -17.84 q 0,-0.92 0.56,-1.48 0.6,-0.56 1.48,-0.56 0.92,0 1.48,0.56 0.56,0.56 0.56,1.48 v 17.84 q 0,0.88 -0.56,1.48 -0.56,0.56 -1.48,0.56 z"
         id="path3" />
    </g>
  </g>
</svg>
