<?xml version="1.0" encoding="UTF-8" standalone="no"?>
<svg
   width="4053"
   height="570"
   xml:space="preserve"
   overflow="hidden"
   version="1.1"
   id="svg34"
   sodipodi:docname="process.svg"
   inkscape:version="1.4 (e7c3feb100, 2024-10-09)"
   xmlns:inkscape="http://www.inkscape.org/namespaces/inkscape"
   xmlns:sodipodi="http://sodipodi.sourceforge.net/DTD/sodipodi-0.dtd"
   xmlns="http://www.w3.org/2000/svg"
   xmlns:svg="http://www.w3.org/2000/svg"><defs
     id="defs34"><inkscape:path-effect
       effect="fillet_chamfer"
       id="path-effect36"
       is_visible="true"
       lpeversion="1"
       nodesatellites_param="F,0,0,1,0,22.451739,0,1 @ F,0,0,1,0,24.012779,0,1 @ F,0,0,1,0,21.966892,0,1 @ F,0,0,1,0,25.422241,0,1 @ F,0,0,1,0,19.41669,0,1"
       radius="0"
       unit="px"
       method="auto"
       mode="F"
       chamfer_steps="1"
       flexible="false"
       use_knot_distance="true"
       apply_no_radius="true"
       apply_with_radius="true"
       only_selected="false"
       hide_knots="false" /><inkscape:path-effect
       effect="fillet_chamfer"
       id="path-effect35"
       is_visible="true"
       lpeversion="1"
       nodesatellites_param="F,0,0,1,0,0,0,1 @ F,0,0,1,0,0,0,1 @ F,0,0,1,0,0,0,1 @ F,0,0,1,0,0,0,1 @ F,0,0,1,0,0,0,1"
       radius="0"
       unit="px"
       method="auto"
       mode="F"
       chamfer_steps="1"
       flexible="false"
       use_knot_distance="true"
       apply_no_radius="true"
       apply_with_radius="true"
       only_selected="false"
       hide_knots="false" /><inkscape:path-effect
       effect="fillet_chamfer"
       id="path-effect34"
       is_visible="true"
       lpeversion="1"
       nodesatellites_param="F,0,1,1,0,15.861742,0,1 @ F,0,0,1,0,15.861742,0,1 @ F,0,1,1,0,15.861742,0,1 @ F,0,1,1,0,15.861742,0,1 @ F,0,1,1,0,15.861742,0,1"
       radius="0"
       unit="px"
       method="auto"
       mode="F"
       chamfer_steps="1"
       flexible="false"
       use_knot_distance="true"
       apply_no_radius="true"
       apply_with_radius="true"
       only_selected="false"
       hide_knots="false" /></defs><sodipodi:namedview
     id="namedview34"
     pagecolor="#505050"
     bordercolor="#ffffff"
     borderopacity="1"
     inkscape:showpageshadow="0"
     inkscape:pageopacity="0"
     inkscape:pagecheckerboard="1"
     inkscape:deskcolor="#505050"
     inkscape:zoom="0.26220735"
     inkscape:cx="3396.1672"
     inkscape:cy="-167.80613"
     inkscape:window-width="1920"
     inkscape:window-height="1029"
     inkscape:window-x="1216"
     inkscape:window-y="27"
     inkscape:window-maximized="1"
     inkscape:current-layer="g34" /><g
     transform="translate(-191 -1698)"
     id="g34"><path
       d="M 209.36174,1700.5 H 4143.1283 a 26.976745,26.976745 30.454607 0 1 23.5736,13.8608 l 66.0862,118.7784 a 28.508713,28.508713 90 0 1 0,27.7216 l -66.0862,118.7784 A 26.976745,26.976745 149.54539 0 1 4143.1283,1993.5 H 209.36174 A 15.861742,15.861742 45 0 1 193.5,1977.6383 V 1716.3617 A 15.861742,15.861742 135 0 1 209.36174,1700.5 Z"
       stroke="#4e95d9"
       stroke-width="4.58333"
       stroke-miterlimit="8"
       fill="#4e95d9"
       fill-rule="evenodd"
       id="path1"
       inkscape:path-effect="#path-effect34"
       inkscape:original-d="m 193.5,1700.5 h 3965.49 l 81.51,146.5 -81.51,146.5 H 193.5 Z" /><path
       d="M 215.95174,2024.5 H 4138.7172 a 44.07729,44.07729 28.581018 0 1 37.0341,20.1757 l 52.8368,81.8676 a 34.036396,34.036396 90 0 1 0,36.9134 l -52.0725,80.6833 a 46.664465,46.664465 151.41898 0 1 -39.2078,21.36 H 212.91669 A 19.41669,19.41669 45 0 1 193.5,2246.0833 V 2046.9517 A 22.451739,22.451739 135 0 1 215.95174,2024.5 Z"
       stroke="#215f9a"
       stroke-width="4.58333"
       stroke-miterlimit="8"
       fill="#215f9a"
       fill-rule="evenodd"
       id="path2"
       inkscape:path-effect="#path-effect36"
       inkscape:original-d="m 193.5,2024.5 h 3969.23 l 77.77,120.5 -77.77,120.5 H 193.5 Z" /><text
       fill="#FFFFFF"
       font-family="Comfortaa Medium,Comfortaa Medium_MSFontService,sans-serif"
       font-weight="700"
       font-size="64"
       transform="matrix(1 0 0 1 1858.23 2128)"
       id="text2">Projektmanagement</text><text
       fill="#FFFFFF"
       font-family="Comfortaa,Comfortaa_MSFontService,sans-serif"
       font-weight="400"
       font-size="64"
       transform="matrix(1 0 0 1 1533.68 2205)"
       id="text3">Termin</text><text
       fill="#FFFFFF"
       font-family="Comfortaa,Comfortaa_MSFontService,sans-serif"
       font-weight="400"
       font-size="64"
       transform="matrix(1 0 0 1 1766.86 2205)"
       id="text4">-</text><text
       fill="#FFFFFF"
       font-family="Comfortaa,Comfortaa_MSFontService,sans-serif"
       font-weight="400"
       font-size="64"
       transform="matrix(1 0 0 1 1792.07 2205)"
       id="text5">, Qualitäts</text><text
       fill="#FFFFFF"
       font-family="Comfortaa,Comfortaa_MSFontService,sans-serif"
       font-weight="400"
       font-size="64"
       transform="matrix(1 0 0 1 2137.54 2205)"
       id="text6">-</text><text
       fill="#FFFFFF"
       font-family="Comfortaa,Comfortaa_MSFontService,sans-serif"
       font-weight="400"
       font-size="64"
       transform="matrix(1 0 0 1 2181.65 2205)"
       id="text7">und Kostenkontrolle</text><g
       id="g10"><g
         id="g9"><g
           id="g8"><path
             d="M446.938 1736.32 468.063 1736.32 468.063 1813.78 446.938 1813.78Z"
             fill="#FFFFFF"
             id="path7" /><path
             d="M495.877 1759.03 483.73 1776.28C495.525 1784.56 503.271 1798.29 503.271 1813.78 503.271 1838.96 482.674 1859.55 457.5 1859.55 432.326 1859.55 411.729 1838.96 411.729 1813.78 411.729 1798.29 419.475 1784.56 431.27 1776.28L419.123 1759.03C401.871 1771 390.604 1791.07 390.604 1813.78 390.604 1850.75 420.531 1880.68 457.5 1880.68 494.469 1880.68 524.396 1850.75 524.396 1813.78 524.396 1791.07 513.129 1771 495.877 1759.03Z"
             fill="#FFFFFF"
             id="path8" /></g></g></g><g
       id="g16"><g
         id="g15"><g
           id="g14"><path
             d="M138.721 37.6553 144.989 31.4322C146.354 30.2335 146.488 28.1557 145.289 26.7912 145.222 26.7143 145.15 26.6404 145.076 26.5699L138.914 20.4085C137.579 19.042 135.389 19.0165 134.023 20.3516 134.003 20.3705 133.984 20.3893 133.966 20.4085L127.697 26.6315Z"
             fill="#FFFFFF"
             transform="matrix(1 0 0 1 1138 1724)"
             id="path10" /><path
             d="M116.191 106.505 116.191 101.224 102.988 101.224 102.988 120.588 100.347 120.588 100.347 125.87 134.675 125.87 134.675 64.2551 119.816 64.2551 114.534 69.5364 129.394 69.5364 129.394 85.3801 102.104 85.3801 102.104 90.6613 129.394 90.6613 129.394 101.224 124.993 101.224 124.993 106.505 129.394 106.505 129.394 120.588 108.269 120.588 108.269 106.505 116.191 106.505Z"
             fill="#FFFFFF"
             transform="matrix(1 0 0 1 1138 1724)"
             id="path11" /><path
             d="M143.581 40.4895 133.019 51.052 146.114 51.052 146.114 137.312 43.0861 137.312C43.494 136.174 43.7692 134.993 43.9065 133.791L44.0104 132.031 44.0104 51.052 95.9074 51.052 106.45 40.4895 44.0104 40.4895 44.0104 38.7291C44.0104 29.9788 36.9169 22.8854 28.1666 22.8854 19.4163 22.8854 12.3229 29.9788 12.3229 38.7291L12.3229 132.031 12.4268 133.791C13.3026 141.506 19.6362 147.45 27.3903 147.836L27.3903 147.875 156.677 147.875 156.677 40.4895ZM28.1666 137.312C25.2498 137.312 22.8854 134.948 22.8854 132.031 22.8854 129.114 25.2498 126.75 28.1666 126.75 31.0835 126.75 33.4479 129.114 33.4479 132.031 33.4479 134.948 31.0835 137.312 28.1666 137.312ZM33.4479 117.112C30.0348 115.879 26.2985 115.879 22.8854 117.112L22.8854 38.7291C22.8854 35.8123 25.2498 33.4479 28.1666 33.4479 31.0835 33.4479 33.4479 35.8123 33.4479 38.7291Z"
             fill="#FFFFFF"
             transform="matrix(1 0 0 1 1138 1724)"
             id="path12" /><path
             d="M77.46 69.5364 82.7307 64.2551 55.453 64.2551 55.453 125.87 89.7846 125.87 89.7846 120.588 87.144 120.588 87.144 101.224 73.9409 101.224 73.9409 106.505 81.8628 106.505 81.8628 120.588 60.7343 120.588 60.7343 106.505 65.1388 106.505 65.1388 101.224 60.7343 101.224 60.7343 90.6613 70.4359 90.6613 72.1875 85.3801 60.7343 85.3801 60.7343 69.5364 77.46 69.5364Z"
             fill="#FFFFFF"
             transform="matrix(1 0 0 1 1138 1724)"
             id="path13" /><path
             d="M125.236 29.1419 82.0511 72.4111 76.578 88.9009 93.1611 83.4313 136.344 40.2466ZM91.3409 80.3981 83.9612 82.831 82.6603 81.5283 85.0896 74.1486C86.8529 72.4794 89.6245 72.5178 91.3409 74.2349 93.0428 75.8876 93.0828 78.6069 91.4301 80.3089 91.4007 80.3391 91.371 80.3689 91.3409 80.3981Z"
             fill="#FFFFFF"
             transform="matrix(1 0 0 1 1138 1724)"
             id="path14" /></g></g></g><g
       id="g24"><g
         id="g23"><g
           id="g22"><path
             d="M1986.48 1762.07 1941.07 1789.34 1986.49 1816.71 2031.91 1789.44 1986.48 1762.07Z"
             fill="#FFFFFF"
             id="path16" /><path
             d="M1963.03 1847.22 1936.85 1831.36 1936.85 1850.86 1983.82 1879.33 1983.82 1828.34 1963.03 1847.22Z"
             fill="#FFFFFF"
             id="path17" /><path
             d="M2009.91 1847.23 1989.14 1828.35 1989.14 1879.33 2036.11 1850.86 2036.11 1831.34ZM2005.81 1861.48 1995.2 1867.54 1995.2 1856.92 2005.81 1850.86Z"
             fill="#FFFFFF"
             id="path18" /><path
             d="M1983.81 1757.52 1962.4 1738.07 1915.13 1766.71 1936.34 1786.02 1983.81 1757.52Z"
             fill="#FFFFFF"
             id="path19" /><path
             d="M2036.55 1786.07 2057.82 1766.71 2010.55 1738.07 1989.14 1757.51 2036.55 1786.07Z"
             fill="#FFFFFF"
             id="path20" /><path
             d="M1936.38 1792.68 1915.13 1812.02 1962.4 1840.66 1983.78 1821.24 1936.38 1792.68Z"
             fill="#FFFFFF"
             id="path21" /><path
             d="M1989.18 1821.25 2010.55 1840.66 2057.82 1812.02 2036.65 1792.75 1989.18 1821.25Z"
             fill="#FFFFFF"
             id="path22" /></g></g></g><g
       id="g27"><g
         id="g26"><g
           id="g25"><path
             d="M155.797 78.6905 146.643 79.2186C146.114 79.2186 145.586 79.5707 145.41 79.9228 144.002 81.8593 141.361 82.3874 139.249 80.9791 139.073 80.803 138.897 80.627 138.545 80.4509 138.193 80.0988 137.488 79.9228 136.96 79.9228L135.2 80.2749C134.32 69.5364 130.095 59.502 123.229 51.4041L124.637 50.3478C125.165 49.9958 125.341 49.4676 125.341 48.9395 125.341 46.4749 127.278 44.5385 129.743 44.5385 130.095 44.5385 130.271 44.5385 130.623 44.5385 131.151 44.5385 131.679 44.5385 132.031 44.1864L138.721 38.377C141.185 36.2645 141.537 32.3916 139.425 29.927 139.425 29.927 139.425 29.927 139.425 29.927 137.312 27.6385 133.615 27.4625 131.151 29.575 130.975 29.751 130.799 29.927 130.799 29.927L124.637 36.9687C124.285 37.3208 124.109 37.8489 124.285 38.377 124.637 40.8416 123.229 43.1301 120.764 43.4822 120.588 43.4822 120.236 43.4822 119.884 43.4822 119.356 43.4822 118.828 43.8343 118.476 44.1864L117.42 45.5947C109.322 38.7291 99.1113 34.5041 88.5488 33.6239L88.9009 31.8635C89.077 31.3354 88.9009 30.8072 88.3728 30.2791 86.6124 28.5187 86.6124 25.8781 88.3728 24.1177 88.5488 23.9416 88.7249 23.7656 89.077 23.5896 89.429 23.2375 89.7811 22.8854 89.7811 22.3573L90.3092 13.5552C90.4853 10.2104 88.0207 7.39374 84.6759 7.04166 81.5072 6.86562 78.6905 9.3302 78.6905 12.675 78.6905 12.851 78.6905 13.0271 78.6905 13.2031L79.2186 22.3573C79.2186 22.8854 79.5707 23.4135 79.9228 23.5896 81.8593 24.9979 82.3874 27.6385 80.9791 29.751 80.803 29.927 80.627 30.1031 80.4509 30.4552 80.0988 30.8072 79.9228 31.5114 79.9228 32.0395L80.2749 33.8C69.5364 34.6802 59.502 38.9052 51.4041 45.7708L50.3478 44.3624C49.9958 43.8343 49.4676 43.6583 48.9395 43.6583 46.4749 43.6583 44.5385 41.7218 44.5385 39.2572 44.5385 38.9052 44.5385 38.7291 44.5385 38.377 44.5385 37.8489 44.5385 37.3208 44.1864 36.9687L38.377 30.2791C36.2645 27.8145 32.3916 27.4625 29.927 29.575 29.927 29.575 29.927 29.575 29.927 29.575 27.6385 31.6875 27.4625 35.3843 29.575 37.8489 29.751 38.0249 29.927 38.201 29.927 38.201L36.7927 44.3624C37.1447 44.7145 37.6729 44.8906 38.201 44.7145 40.6656 44.3624 42.9541 45.7708 43.3062 48.2353 43.3062 48.4114 43.3062 48.7635 43.3062 49.1156 43.3062 49.6437 43.6583 50.1718 44.0104 50.5239L45.4187 51.5801C38.5531 59.678 34.3281 69.8884 33.4479 80.4509L31.6875 80.0988C31.1593 79.9228 30.6312 80.0988 30.1031 80.627 28.3427 82.3874 25.702 82.3874 23.9416 80.627 23.7656 80.4509 23.5896 80.2749 23.4135 79.9228 23.4135 79.5707 22.8854 79.2186 22.3573 79.2186L13.5552 78.6905C10.2104 78.5145 7.39374 80.9791 7.04166 84.1478 7.04166 84.1478 7.04166 84.1478 7.04166 84.1478 6.86562 87.3165 9.3302 90.1332 12.675 90.1332 12.851 90.1332 13.0271 90.1332 13.2031 90.1332L22.3573 89.6051C22.8854 89.6051 23.4135 89.253 23.5896 88.9009 24.9979 86.9645 27.6385 86.4363 29.751 87.8447 29.927 88.0207 30.1031 88.1968 30.4552 88.3728 30.8072 88.7249 31.5114 88.9009 32.0395 88.9009L33.8 88.5488C34.6802 99.2874 38.9052 109.322 45.7708 117.42L44.3624 118.476C43.8343 118.828 43.6583 119.356 43.6583 119.884 43.6583 122.349 41.7218 124.285 39.2572 124.285 38.9052 124.285 38.7291 124.285 38.377 124.285 37.8489 124.285 37.3208 124.285 36.9687 124.637L30.2791 130.447C27.8145 132.559 27.4625 136.432 29.575 138.897 29.575 138.897 29.575 138.897 29.575 138.897 31.6875 141.185 35.3843 141.361 37.8489 139.249 38.0249 139.073 38.201 138.897 38.201 138.897L44.3624 132.031C44.7145 131.679 44.8906 131.151 44.7145 130.623 44.3624 128.158 45.7708 125.87 48.2353 125.518 48.4114 125.518 48.7635 125.518 49.1156 125.518 49.6437 125.518 50.1718 125.165 50.5239 124.813L51.5801 123.405C59.678 130.447 69.8884 134.496 80.4509 135.376L80.0988 137.136C79.9228 137.664 80.0988 138.193 80.627 138.721 82.3874 140.481 82.3874 143.122 80.627 144.882 80.4509 145.058 80.2749 145.234 79.9228 145.41 79.5707 145.586 79.2186 146.114 79.2186 146.643L78.6905 155.445C78.3384 158.789 80.9791 161.606 84.1478 161.958 87.3165 162.134 90.1332 159.67 90.1332 156.325 90.1332 156.149 90.1332 155.973 90.1332 155.797L89.7811 146.643C89.7811 146.114 89.429 145.586 89.077 145.41 87.1405 144.002 86.6124 141.361 88.0207 139.249 88.1968 139.073 88.3728 138.897 88.5488 138.545 88.9009 138.193 89.077 137.488 89.077 136.96L88.7249 135.2C99.4634 134.32 109.498 130.095 117.596 123.229L118.652 124.637C119.004 125.165 119.532 125.341 120.06 125.341 122.525 125.341 124.461 127.278 124.461 129.743 124.461 130.095 124.461 130.271 124.461 130.623 124.461 131.151 124.461 131.679 124.813 132.031L130.623 138.721C132.735 141.185 136.608 141.537 139.073 139.425 139.073 139.425 139.073 139.425 139.073 139.425 141.361 137.312 141.537 133.615 139.425 131.151 139.249 130.975 139.073 130.799 139.073 130.799L132.031 124.637C131.679 124.285 131.151 124.109 130.623 124.285 128.158 124.637 125.87 123.229 125.518 120.764 125.518 120.588 125.518 120.236 125.518 119.884 125.518 119.356 125.165 118.828 124.813 118.476L123.405 117.42C130.271 109.322 134.496 99.1113 135.376 88.5488L137.136 88.9009C137.664 89.077 138.193 88.9009 138.721 88.3728 140.481 86.6124 143.122 86.6124 144.882 88.3728 145.058 88.5488 145.234 88.7249 145.41 89.077 145.762 89.429 146.114 89.7811 146.643 89.7811L155.445 90.3092C158.789 90.6613 161.606 88.1968 161.958 84.852 161.958 84.852 161.958 84.852 161.958 84.852 162.134 81.6832 159.67 78.8666 156.325 78.8666 156.149 78.6905 155.973 78.6905 155.797 78.6905ZM44.1864 88.0207C46.1229 87.4926 48.0593 87.1405 49.9958 87.1405 51.4041 89.6051 54.5728 90.4853 57.2135 89.077 58.0937 88.5488 58.6218 88.0207 59.1499 87.1405 61.2624 87.1405 63.551 87.4926 65.4874 88.1968 66.0155 90.8374 67.0718 93.302 68.4801 95.4145 67.4239 97.3509 66.1916 99.1113 64.6072 100.696 61.7905 99.9915 58.9739 101.576 58.0937 104.393 57.9176 105.273 57.9176 106.329 58.0937 107.209 56.6853 108.618 55.101 109.85 53.3405 110.73 48.2353 104.217 44.8906 96.2947 44.1864 88.0207ZM53.5166 58.4458C55.277 59.326 56.8614 60.5583 58.2697 61.9666 57.5655 64.7832 59.1499 67.5999 61.9666 68.4801 62.8468 68.6562 63.903 68.6562 64.7832 68.4801 66.3676 70.0645 67.5999 71.8249 68.6562 73.7614 67.2478 75.8738 66.1916 78.3384 65.6635 80.9791 63.551 81.6832 61.4385 82.0353 59.326 82.0353 57.9176 79.5707 54.7489 78.6905 52.1083 80.0988 51.2281 80.627 50.6999 81.1551 50.1718 82.0353 48.2353 82.0353 46.2989 81.6832 44.3624 81.1551 44.8906 72.7051 48.2353 64.7832 53.5166 58.4458L53.5166 58.4458ZM100.52 64.7832 100.52 64.7832C98.9353 66.3676 97.1749 67.5999 95.2384 68.6562 93.1259 67.2478 90.6613 66.1916 88.0207 65.6635 87.3165 63.551 86.9645 61.4385 86.9645 59.326 89.429 57.9176 90.3092 54.7489 88.9009 52.1083 88.3728 51.2281 87.8447 50.6999 86.9645 50.1718 86.9645 48.2353 87.3165 46.2989 87.8447 44.3624 96.1186 45.0666 104.04 48.4114 110.378 53.6926 109.498 55.453 108.265 57.0374 106.857 58.4458 104.04 57.7416 101.224 59.326 100.344 62.1426 100.344 62.8468 100.344 63.727 100.52 64.7832L100.52 64.7832ZM80.9791 44.1864C81.5072 46.1229 81.8593 48.0593 81.8593 49.9958 79.3947 51.4041 78.5145 54.5728 79.9228 57.2135 80.4509 58.0937 80.9791 58.6218 81.8593 59.1499 81.8593 61.2624 81.5072 63.3749 80.803 65.4874 78.1624 66.0155 75.6978 67.0718 73.5853 68.4801 71.6489 67.4239 69.8884 66.1916 68.3041 64.6072 69.0082 61.7905 67.4239 58.9739 64.6072 58.0937 63.727 57.9176 62.6707 57.9176 61.7905 58.0937 60.3822 56.6853 59.1499 55.101 58.2697 53.3405 64.7832 48.2353 72.7051 44.8906 80.9791 44.1864ZM61.9666 110.73C64.7832 111.434 67.5999 109.85 68.4801 107.033 68.6562 106.153 68.6562 105.097 68.4801 104.217 70.0645 102.632 71.8249 101.4 73.7614 100.344 75.8738 101.752 78.3384 102.808 80.9791 103.336 81.6832 105.449 82.0353 107.561 82.0353 109.674 79.5707 111.082 78.6905 114.251 80.0988 116.892 80.627 117.772 81.1551 118.3 82.0353 118.828 82.0353 120.764 81.6832 122.701 81.1551 124.637 72.8811 123.933 64.9593 120.588 58.6218 115.307 59.326 113.723 60.5583 112.138 61.9666 110.73ZM88.0207 124.813C87.4926 122.877 87.1405 120.94 87.1405 119.004 89.6051 117.596 90.4853 114.427 89.077 111.786 88.5488 110.906 88.0207 110.378 87.1405 109.85 87.1405 107.737 87.4926 105.625 88.1968 103.512 90.8374 102.984 93.302 101.928 95.4145 100.52 97.3509 101.576 99.1113 102.808 100.696 104.393 99.9915 107.209 101.576 110.026 104.393 110.906 105.273 111.082 106.329 111.082 107.209 110.906 108.618 112.314 109.85 113.899 110.73 115.659 104.217 120.764 96.2947 124.109 88.0207 124.813L88.0207 124.813ZM115.483 110.554C113.723 109.674 112.138 108.442 110.73 107.033 111.434 104.217 109.85 101.4 107.033 100.52 106.153 100.344 105.097 100.344 104.217 100.52 102.632 98.9353 101.4 97.1749 100.344 95.2384 101.752 93.1259 102.808 90.6613 103.336 88.0207 105.449 87.3165 107.561 86.9645 109.674 86.9645 111.082 89.429 114.251 90.3092 116.892 88.9009 117.772 88.3728 118.3 87.8447 118.828 86.9645 120.764 86.9645 122.701 87.3165 124.637 87.8447 124.109 96.2947 120.94 104.217 115.483 110.554ZM119.004 81.8593C117.596 79.3947 114.427 78.5145 111.786 79.9228 110.906 80.4509 110.378 80.9791 109.85 81.8593 107.737 81.8593 105.625 81.5072 103.512 80.803 102.984 78.1624 101.928 75.6978 100.52 73.5853 101.576 71.6489 102.808 69.8884 104.393 68.3041 107.209 69.0082 110.026 67.4239 110.906 64.6072 111.082 63.727 111.082 62.6707 110.906 61.7905 112.314 60.3822 113.899 59.1499 115.659 58.2697 121.117 64.6072 124.285 72.5291 124.989 80.803 123.053 81.5072 120.94 81.8593 119.004 81.8593L119.004 81.8593Z"
             fill="#FFFFFF"
             transform="matrix(1 0 0 1 2667 1724)"
             id="path24" /></g></g></g><g
       id="g30"><g
         id="g29"><g
           id="g28"><path
             d="M3516.46 1741.6C3479.54 1741.6 3449.6 1771.54 3449.6 1808.46 3449.6 1845.39 3479.54 1875.32 3516.46 1875.32 3553.39 1875.32 3583.32 1845.39 3583.32 1808.46 3583.32 1808.46 3583.32 1808.46 3583.32 1808.46 3583.33 1771.55 3553.42 1741.62 3516.51 1741.6 3516.5 1741.6 3516.48 1741.6 3516.46 1741.6ZM3532.66 1811.66C3522.92 1821.38 3513.12 1831.19 3503.26 1841.09 3494.88 1832.67 3486.49 1824.27 3478.07 1815.89L3486.48 1807.48 3503.26 1824.25C3511.4 1815.99 3519.5 1807.79 3527.55 1799.64 3535.6 1791.5 3540.05 1787.13 3548.4 1779.06 3548.63 1778.83 3548.88 1778.6 3549.16 1778.36 3549.42 1778.13 3549.66 1777.88 3549.86 1777.6L3558.4 1786.01C3548.48 1795.87 3542.4 1801.93 3532.66 1811.65Z"
             fill="#FFFFFF"
             id="path27" /></g></g></g><text
       fill="#FFFFFF"
       font-family="Comfortaa Medium,Comfortaa Medium_MSFontService,sans-serif"
       font-weight="500"
       font-size="55"
       transform="matrix(1 0 0 1 314.605 1962)"
       id="text30">Projektstart</text><text
       fill="#FFFFFF"
       font-family="Comfortaa Medium,Comfortaa Medium_MSFontService,sans-serif"
       font-weight="500"
       font-size="55"
       transform="matrix(1 0 0 1 985.752 1962)"
       id="text31">Umzugsplanung</text><text
       fill="#FFFFFF"
       font-family="Comfortaa Medium,Comfortaa Medium_MSFontService,sans-serif"
       font-weight="500"
       font-size="55"
       transform="matrix(1 0 0 1 1741.63 1962)"
       id="text32">Umzugsvorbereitung</text><text
       fill="#FFFFFF"
       font-family="Comfortaa Medium,Comfortaa Medium_MSFontService,sans-serif"
       font-weight="500"
       font-size="55"
       transform="matrix(1 0 0 1 2441.02 1962)"
       id="text33">Umzugskoordination</text><text
       fill="#FFFFFF"
       font-family="Comfortaa Medium,Comfortaa Medium_MSFontService,sans-serif"
       font-weight="500"
       font-size="55"
       transform="matrix(1 0 0 1 3271.07 1962)"
       id="text34">Nach dem Umzug</text></g></svg>
